# xmcd CD database file
#
# Track frame offsets:
#	150
#	17963
#	29987
#	45848
#	64142
#	75710
#	86366
#	101262
#	116064
#	132858
#	143903
#	158505
#	172974
#	183505
#	200476
#
# Disc length: 2881 seconds
#
# Revision: 0
# Processed by: cddbd v1.5.2PL0 Copyright (c) Steve Scherf et al.
# Submitted via: CDex 1.70beta2
#
DISCID=c20b3f0f
DTITLE=Peters, Gary - Cdn. - Peterborough, ON - Still Country, Still Me
DYEAR=1900
DGENRE=Country
TTITLE0=The Farmer's Daughter
TTITLE1=Choices
TTITLE2=Roses In Winter
TTITLE3=Sunday Morning Coming Down
TTITLE4=What Every Man Needs
TTITLE5=There Go I
TTITLE6=Don't Tell Mama(I Was Drinkin')
TTITLE7=In My Next Life
TTITLE8=Silverhaired Daddy of Mine
TTITLE9=Keys In the Mailbox
TTITLE10=Rose of My Heart
TTITLE11=Hank's Medley
TTITLE12=The Chokin' Kind
TTITLE13=Old Hippy
TTITLE14=Just Plain Folks
EXTD=
EXTT0=
EXTT1=
EXTT2=
EXTT3=
EXTT4=
EXTT5=
EXTT6=
EXTT7=
EXTT8=
EXTT9=
EXTT10=
EXTT11=
EXTT12=
EXTT13=
EXTT14=
PLAYORDER=
